<?xml version="1.0"?>
<svg width="320" height="240" xmlns="http://www.w3.org/2000/svg" xmlns:svg="http://www.w3.org/2000/svg">
 <!-- Created with SVG-edit - https://github.com/SVG-Edit/svgedit-->
 <defs>
  <filter height="200%" id="svg_2_blur" width="200%" x="-50%" y="-50%">
   <feGaussianBlur in="SourceGraphic" stdDeviation="6.4"/>
  </filter>
  <filter id="svg_4_blur">
   <feGaussianBlur in="SourceGraphic" stdDeviation="0.9"/>
  </filter>
  <linearGradient id="svg_11">
   <stop offset="0" stop-color="#FF0000"/>
   <stop offset="1" stop-color="#00ffff"/>
  </linearGradient>
 </defs>
 <g class="layer">
  <title>Layer 1</title>
  <ellipse cx="162.5" cy="122.5" fill="url(#svg_11)" fill-opacity="0.48" filter="url(#svg_2_blur)" id="svg_2" rx="86" ry="86" stroke="#000000" stroke-width="5" transform="rotate(-0.511556 162.5 122.5)">J.A.C.J</ellipse>
  <text fill="#ffffff" filter="url(#svg_4_blur)" font-family="Monospace" font-size="35" font-weight="bold" id="svg_4" stroke="#000000" stroke-dasharray="null" stroke-linecap="null" stroke-linejoin="null" stroke-width="0" text-anchor="middle" transform="matrix(0.687108 0 0 0.725 -58.7819 -69.2875)" x="323.5" xml:space="preserve" y="244.5">J.A.C.J</text>
  <path d="m149.150009,146.491033l36.010067,0m-17.922804,15.456386l17.59396,17.2651m-17.593974,-17.42954l-16.442953,17.42953m16.360738,-37.983221l0,20.553691m5.465998,-26.104472c0,3.018788 -2.44721,5.465998 -5.465998,5.465998c-3.018788,0 -5.465999,-2.44721 -5.465999,-5.465998c0.000003,-3.018786 2.447211,-5.465998 5.465999,-5.465998c3.018788,0 5.465998,2.447211 5.465998,5.465998z" fill="#ffffff" id="svg_8" stroke="#000000" stroke-dasharray="null" stroke-linecap="null" stroke-linejoin="null" stroke-width="5"/>
 </g>
</svg>